<?xml version="1.0" encoding="UTF-8"?>
<svg version="1.1" xmlns="http://www.w3.org/2000/svg" width="293" height="312">
<path d="M0 0 C96.69 0 193.38 0 293 0 C293 102.96 293 205.92 293 312 C196.31 312 99.62 312 0 312 C0 209.04 0 106.08 0 0 Z " fill="#FEFEFE" transform="translate(0,0)"/>
<path d="M0 0 C0.69215449 -0.01130825 1.38430899 -0.0226165 2.09743786 -0.03426743 C5.20453711 -0.08514482 8.30768153 -0.15618679 11.41316223 -0.27111816 C18.98473954 -0.40269186 18.98473954 -0.40269186 22.81518555 2.3671875 C24.61591541 5.03144974 25.65928676 7.60986261 26.70507812 10.63818359 C28.76955627 15.68864067 31.76480554 20.29646301 34.54840088 24.97808838 C36.23823241 27.83823347 37.88060516 30.72483966 39.52929688 33.60888672 C41.19433668 36.51832967 42.86462135 39.34234218 44.72460938 42.13232422 C44.49220004 64.58887659 35.4677642 92.91726319 20.72460938 110.13232422 C5.40275359 120.08949408 -12.20006874 124.83984328 -30.27539062 125.13232422 C-31.7357373 125.17341309 -31.7357373 125.17341309 -33.22558594 125.21533203 C-40.25252342 125.40160984 -47.24983539 125.33341122 -54.27539062 125.13232422 C-55.44352295 125.11854736 -55.44352295 125.11854736 -56.63525391 125.10449219 C-67.50876751 124.91167343 -77.02233932 121.73347162 -87.08789062 117.81982422 C-88.3115332 117.34569092 -89.53517578 116.87155762 -90.79589844 116.38305664 C-98.60698403 113.19856229 -103.99052245 110.19674887 -107.99414062 102.47216797 C-108.44901855 101.60285645 -108.90389648 100.73354492 -109.37255859 99.83789062 C-109.83549316 98.92442871 -110.29842773 98.0109668 -110.77539062 97.06982422 C-111.26023926 96.12026855 -111.74508789 95.17071289 -112.24462891 94.19238281 C-113.60188151 91.51227908 -114.94070144 88.82371475 -116.27539062 86.13232422 C-116.819375 85.06369141 -117.36335938 83.99505859 -117.92382812 82.89404297 C-120.9706102 76.34443181 -122.51197093 69.46302301 -124.08789062 62.44482422 C-124.30751465 61.46980957 -124.52713867 60.49479492 -124.75341797 59.49023438 C-125.33840459 56.7109568 -125.83932948 53.93863024 -126.27539062 51.13232422 C-126.45279785 50.00105103 -126.45279785 50.00105103 -126.63378906 48.84692383 C-127.22917076 41.5452745 -123.52871483 36.15834755 -119.90039062 30.06982422 C-119.02447266 28.54325195 -119.02447266 28.54325195 -118.13085938 26.98583984 C-116.92920005 24.90942422 -115.69589324 22.8509747 -114.43037415 20.81285095 C-112.89366089 18.28497824 -111.61597188 15.73799836 -110.40715027 13.03919983 C-105.34715847 2.49552017 -105.34715847 2.49552017 -100.2301178 0.2246685 C-94.22561787 -1.20731034 -88.09859944 -0.85040077 -81.97460938 -0.64892578 C-79.97330577 -0.64149617 -77.97196452 -0.64118798 -75.97065735 -0.64758301 C-70.70055771 -0.64551089 -65.4364515 -0.54809638 -60.16784668 -0.42987061 C-54.91037559 -0.32784503 -49.65284275 -0.31368155 -44.39453125 -0.29345703 C-36.33057553 -0.25401032 -28.26977588 -0.15564453 -20.20703125 -0.01269531 C-13.46649195 0.10514493 -6.74029984 0.13363125 0 0 Z " fill="#D5E9F2" transform="translate(188.275390625,157.86767578125)"/>
<path d="M0 0 C3.0625 0.3125 3.0625 0.3125 4.78125 1.4453125 C6.69483193 4.23400811 6.05531475 6.19076534 5.625 9.5 C4.82274318 17.66765723 5.79361038 25.23774785 7.0625 33.3125 C7.77277344 33.30089844 8.48304688 33.28929687 9.21484375 33.27734375 C10.13394531 33.26832031 11.05304688 33.25929687 12 33.25 C12.91652344 33.23839844 13.83304687 33.22679687 14.77734375 33.21484375 C17.0625 33.3125 17.0625 33.3125 18.0625 34.3125 C18.20365161 36.98308851 18.10497107 39.63682238 18.0625 42.3125 C19.155625 42.415625 20.24875 42.51875 21.375 42.625 C36.74607893 44.66731119 51.73223735 51.50126164 62.0625 63.3125 C71.16098288 75.43292065 76.6951457 90.40145589 79.0625 105.3125 C79.18625 106.03872559 79.31 106.76495117 79.4375 107.51318359 C80.71727226 115.6134088 81.82942393 122.980311 76.79370117 129.92773438 C74.66318363 132.49586137 72.35762816 134.891702 70.0625 137.3125 C69.75382775 137.89797922 69.44515551 138.48345844 69.12712955 139.08667946 C67.9727189 141.25004354 66.91999971 142.69782568 65.0625 144.3125 C61.07555794 145.41688495 57.14486435 145.35094485 53.02709961 145.34521484 C51.80694153 145.37033142 50.58678345 145.395448 49.32965088 145.42132568 C45.98742588 145.48062494 42.64824606 145.5079486 39.30571437 145.51623106 C37.21309744 145.52344352 35.12078918 145.54037522 33.02826118 145.56071854 C25.71339913 145.63145523 18.39942294 145.66494071 11.08422852 145.66455078 C4.28936389 145.66518145 -2.50115017 145.74761824 -9.29483992 145.86867368 C-15.14494835 145.96918012 -20.99363941 146.0110092 -26.84460443 146.00851977 C-30.33193665 146.00804076 -33.81523113 146.03041122 -37.30168343 146.11240768 C-60.11307613 146.61397869 -60.11307613 146.61397869 -66.27755737 140.99835205 C-69.00343909 137.92237156 -71.13074266 134.64877406 -73.03019524 131.01109695 C-73.97186033 129.14198619 -73.97186033 129.14198619 -75.68690491 126.99740601 C-79.55490406 121.78611497 -76.99984342 111.91379178 -76.16333008 105.7800293 C-74.03925618 91.97576614 -69.31826147 79.21130015 -61.9375 67.3125 C-61.50050781 66.59707031 -61.06351563 65.88164063 -60.61328125 65.14453125 C-54.28629626 55.77189159 -44.23977117 50.35049898 -33.9375 46.3125 C-33.16535156 46.00441406 -32.39320312 45.69632813 -31.59765625 45.37890625 C-26.10839705 43.36264057 -20.758582 42.66492459 -14.9375 42.3125 C-14.9375 39.6725 -14.9375 37.0325 -14.9375 34.3125 C-11.72298731 32.70524365 -8.50137464 33.25501815 -4.9375 33.3125 C-4.71182589 29.54249352 -4.50994154 25.77158213 -4.3125 22 C-4.24804688 20.92814453 -4.18359375 19.85628906 -4.1171875 18.75195312 C-4.03984375 17.20991211 -4.03984375 17.20991211 -3.9609375 15.63671875 C-3.90856934 14.68885498 -3.85620117 13.74099121 -3.80224609 12.7644043 C-3.74357514 10.05302188 -3.74357514 10.05302188 -5.9375 7.3125 C-5.50127473 2.84119098 -4.8107338 0.51178019 0 0 Z " fill="#D4E8F1" transform="translate(145.9375,9.6875)"/>
<path d="M0 0 C1.09183594 0.43570313 2.18367188 0.87140625 3.30859375 1.3203125 C14.05297932 6.13358682 19.09575034 12.82974344 23.7109375 23.50390625 C27.45112872 33.64775819 28 42.05567282 28 53 C-10.28 53 -48.56 53 -88 53 C-88 37.15852658 -84.94430357 21.08490096 -74 9 C-73.51144531 8.45730469 -73.02289063 7.91460937 -72.51953125 7.35546875 C-56.11894412 -8.64016561 -19.7395906 -8.03558555 0 0 Z " fill="#032E45" transform="translate(177,76)"/>
<path d="M0 0 C1.19932159 -0.00082077 2.39864319 -0.00164154 3.63430786 -0.00248718 C6.25881198 -0.00464354 8.88331085 -0.00761382 11.5078125 -0.01171875 C11.5078125 0.31828125 11.5078125 0.64828125 11.5078125 0.98828125 C-1.8571875 1.48328125 -1.8571875 1.48328125 -15.4921875 1.98828125 C-9.38493695 13.10894643 -3.12478004 24.10230581 3.39135742 34.98876953 C4.19536987 36.33624268 4.19536987 36.33624268 5.015625 37.7109375 C5.73709717 38.91375366 5.73709717 38.91375366 6.47314453 40.14086914 C7.5078125 41.98828125 7.5078125 41.98828125 7.5078125 42.98828125 C-10.28563797 43.14219431 -28.07912716 43.29022727 -45.87268448 43.43124485 C-54.1343872 43.49685789 -62.39606575 43.56440084 -70.65771484 43.63647461 C-77.85788805 43.69928329 -85.05808029 43.75848367 -92.25831866 43.81333679 C-96.07138293 43.84251202 -99.88441305 43.87350376 -103.69742584 43.90881538 C-107.28584553 43.94199011 -110.87427092 43.97034252 -114.46275902 43.99498749 C-116.40863785 44.00960943 -118.35447608 44.02935272 -120.30030823 44.04924011 C-122.03766487 44.05979935 -122.03766487 44.05979935 -123.81011963 44.0705719 C-124.81671757 44.07886804 -125.82331551 44.08716417 -126.86041641 44.09571171 C-129.23766337 43.99867108 -131.22254615 43.67109935 -133.4921875 42.98828125 C-132.89767487 38.80951594 -131.4771467 35.83381273 -129.359375 32.19921875 C-128.71742188 31.09191406 -128.07546875 29.98460937 -127.4140625 28.84375 C-127.07697266 28.27060059 -126.73988281 27.69745117 -126.39257812 27.10693359 C-125.38477277 25.39318459 -124.38759771 23.67319846 -123.390625 21.953125 C-119.73779263 15.68387896 -119.73779263 15.68387896 -118.61514282 13.94142151 C-117.37788831 11.90131462 -117.37788831 11.90131462 -116.39144897 9.1736908 C-114.77208558 5.67079984 -113.41803979 3.53113578 -110.4921875 0.98828125 C-104.1589949 -1.11009638 -97.05966524 -0.42865601 -90.484375 -0.3046875 C-88.47875968 -0.3066143 -86.47314377 -0.31340218 -84.46755981 -0.32478333 C-79.17425611 -0.34178418 -73.88351943 -0.29315042 -68.59063721 -0.23059082 C-63.31302901 -0.17922675 -58.03561559 -0.18854134 -52.7578125 -0.19335938 C-43.7149343 -0.19354214 -34.6732489 -0.14610218 -25.63070297 -0.07166862 C-17.08698402 -0.0031174 -8.54394853 0.00903466 0 0 Z " fill="#D4E8F1" transform="translate(196.4921875,158.01171875)"/>
<path d="M0 0 C9.57 0 19.14 0 29 0 C35.9375 12.0625 35.9375 12.0625 38.18310547 16.00366211 C42.40291939 23.39232902 42.40291939 23.39232902 47.0703125 30.50390625 C51.24792838 36.48974393 53.6571314 40.9604364 52.9375 48.5625 C52.4219297 51.41242864 51.7222798 54.19631174 51 57 C50.59243661 58.75650779 50.18488514 60.51301835 49.77734375 62.26953125 C40.16220159 101.74605251 40.16220159 101.74605251 26.70385742 110.4921875 C11.34804776 119.05539116 -4.48428985 123.76365608 -22 124 C-22.93972656 124.01675781 -23.87945312 124.03351563 -24.84765625 124.05078125 C-30.56840763 124.13547609 -36.27985027 124.11059366 -42 124 C-42 123.34 -42 122.68 -42 122 C-41.36578125 122.00902344 -40.7315625 122.01804687 -40.078125 122.02734375 C-26.26078158 121.58839499 -7.47219165 115.96272404 2.75 106.4375 C9.09971485 97.66924193 12.56036322 87.15656279 15.75 76.9375 C16.13542969 75.74833984 16.52085937 74.55917969 16.91796875 73.33398438 C19.15975893 66.27118174 20.85463528 59.31794675 22 52 C20.72866211 52.03426086 20.72866211 52.03426086 19.43164062 52.06921387 C6.05744075 52.25991557 -7.1788741 51.11967541 -20.5 50.03125 C-23.03299635 49.82891607 -25.56603759 49.62714325 -28.09912109 49.42590332 C-34.04176888 48.95244754 -39.98394961 48.47341397 -45.92592049 47.99155664 C-52.70205912 47.4423758 -59.4787764 46.90050449 -66.25554657 46.3591814 C-80.17101311 45.24746346 -94.08574551 44.12677939 -108 43 C-108 42.67 -108 42.34 -108 42 C-64.77 41.67 -21.54 41.34 23 41 C18.05 32.42 13.1 23.84 8 15 C0 1.12658228 0 1.12658228 0 0 Z " fill="#A8D7E9" transform="translate(180,159)"/>
<path d="M0 0 C12.10109199 3.18449789 22.45583995 11.66619927 29.1875 22 C35.60273621 33.04136272 39.99769951 45.3882879 42 58 C42.12375 58.72622559 42.2475 59.45245117 42.375 60.20068359 C43.65477226 68.3009088 44.76692393 75.667811 39.73120117 82.61523438 C37.60068363 85.18336137 35.29512816 87.579202 33 90 C32.69132775 90.58547922 32.38265551 91.17095844 32.06462955 91.77417946 C30.9102189 93.93754354 29.85749971 95.38532568 28 97 C24.01305794 98.10438495 20.08236435 98.03844485 15.96459961 98.03271484 C14.74444153 98.05783142 13.52428345 98.082948 12.26715088 98.10882568 C8.92492588 98.16812494 5.58574606 98.1954486 2.24321437 98.20373106 C0.15059744 98.21094352 -1.94171082 98.22787522 -4.03423882 98.24821854 C-11.34910087 98.31895523 -18.66307706 98.35244071 -25.97827148 98.35205078 C-32.77313611 98.35268145 -39.56365017 98.43511824 -46.35733992 98.55617368 C-52.20744835 98.65668012 -58.05613941 98.6985092 -63.90710443 98.69601977 C-67.39443665 98.69554076 -70.87773113 98.71791122 -74.36418343 98.79990768 C-97.17557613 99.30147869 -97.17557613 99.30147869 -103.34005737 93.68585205 C-106.06525667 90.61064163 -108.19263278 87.33801198 -110.09113884 83.70094681 C-111.03791622 81.82345812 -111.03791622 81.82345812 -112.77430725 79.64730835 C-114 78 -114 78 -114 76 C-112.93732548 75.99780016 -112.93732548 75.99780016 -111.85318279 75.99555588 C-94.627509 75.95852953 -77.40205086 75.89957058 -60.17653942 75.81609726 C-51.84644936 75.77626117 -43.51645439 75.74389199 -35.1862793 75.72900391 C-27.92701515 75.71601096 -20.66795984 75.68910705 -13.4088133 75.64538693 C-9.5638896 75.62271864 -5.71922398 75.6070925 -1.87422752 75.60811615 C1.74318074 75.60885963 5.36001735 75.59103613 8.97727776 75.55883217 C10.94117136 75.54622133 12.90516067 75.5534215 14.86907959 75.56114197 C16.03435684 75.54722916 17.19963409 75.53331635 18.40022278 75.51898193 C19.41511685 75.51529476 20.43001093 75.51160759 21.47565937 75.50780869 C24.12717152 75.22122591 24.12717152 75.22122591 25.82508373 73.13016129 C30.9691743 63.80375831 25.68654861 46.10735026 22.96875 36.265625 C18.76445084 23.70954237 13.16293758 11.74328111 3 3 C1.99206837 2.00799505 0.98928936 1.01059713 0 0 Z " fill="#A9D7E9" transform="translate(183,57)"/>
<path d="M0 0 C2.39353682 3.59030523 2.69207167 5.86229489 2 10 C-5.09007181 33.19761359 -25.64589933 55.11978639 -45 69 C-48.4415633 65.86894283 -50.76239527 62.39894056 -53.07421875 58.40625 C-53.44352005 57.77771118 -53.81282135 57.14917236 -54.1933136 56.50158691 C-54.96853694 55.1787504 -55.74071956 53.85412771 -56.51000977 52.52783203 C-57.68644946 50.50180919 -58.87468224 48.48306043 -60.06445312 46.46484375 C-60.81842104 45.17489548 -61.57170009 43.88454426 -62.32421875 42.59375 C-62.67836349 41.99260376 -63.03250824 41.39145752 -63.39738464 40.77209473 C-65.05669139 37.89619785 -66.43941875 35.29360472 -67 32 C-51.18261046 21.39110961 -34.56826824 12.0635232 -17.5 3.625 C-16.55133057 3.14240723 -15.60266113 2.65981445 -14.62524414 2.16259766 C-9.28981364 -0.4100217 -5.76118339 -1.89512612 0 0 Z " fill="#D5E9F2" transform="translate(283,126)"/>
<path d="M0 0 C1.00772461 0.00153076 2.01544922 0.00306152 3.05371094 0.00463867 C4.63297363 0.00596802 4.63297363 0.00596802 6.24414062 0.00732422 C20.24797937 0.20729205 34.03868988 2.32771625 47.86621094 4.37963867 C50.0055234 4.69090848 52.14484553 5.00211182 54.28417969 5.31323242 C58.81526278 5.97913622 63.34185644 6.66951407 67.86621094 7.37963867 C66.342314 13.09884226 63.43339658 17.54041484 60.24121094 22.44213867 C59.15986708 24.12664007 58.07914069 25.811538 56.99902344 27.49682617 C56.46825195 28.32150391 55.93748047 29.14618164 55.390625 29.99584961 C53.25927311 33.32873235 51.18079618 36.692613 49.11621094 40.06713867 C48.48199219 41.10225586 47.84777344 42.13737305 47.19433594 43.20385742 C46.75605469 43.92186523 46.31777344 44.63987305 45.86621094 45.37963867 C28.12747886 42.3436842 5.44466968 28.33572901 -5.78613281 14.31713867 C-8.5025218 10.3441376 -9.95738203 7.32119651 -9.13378906 2.37963867 C-6.25417849 -0.4999719 -3.9488037 0.06211211 0 0 Z " fill="#D5E9F2" transform="translate(13.1337890625,150.620361328125)"/>
<path d="M0 0 C1.31517609 -0.00191345 2.63035217 -0.0038269 3.98538208 -0.00579834 C6.73997819 -0.00871384 9.49444284 -0.00456512 12.24902344 0.00488281 C15.75891872 0.01634336 19.26851019 0.00965382 22.7783947 -0.00226212 C26.16478697 -0.01126051 29.55109913 -0.00494848 32.9375 0 C34.18659149 -0.00404846 35.43568298 -0.00809692 36.72262573 -0.01226807 C44.29519439 0.02834526 50.82392999 0.27774857 57.6328125 3.890625 C61.38707455 5.63800043 64.91869809 5.35469482 69.0078125 5.265625 C75.03479177 5.14616059 79.28339125 5.3049491 84.5703125 8.265625 C85.265625 10.375 85.265625 10.375 85.5703125 12.265625 C79.81193755 15.7658137 75.49895278 17.38160747 68.67048645 17.40606689 C67.23041229 17.41463211 67.23041229 17.41463211 65.76124573 17.42337036 C64.19877357 17.42504715 64.19877357 17.42504715 62.60473633 17.42675781 C61.49840851 17.43172272 60.39208069 17.43668762 59.25222778 17.44180298 C55.59392676 17.45640167 51.93566911 17.46322324 48.27734375 17.46875 C45.73011779 17.47450385 43.18289184 17.48026156 40.63566589 17.48602295 C35.97585782 17.49518509 31.31606271 17.50148768 26.65624791 17.5045197 C19.81919964 17.508994 12.98235192 17.52651725 6.14536458 17.5555203 C0.20535158 17.57983472 -5.73461207 17.58746856 -11.6746769 17.58919525 C-14.1923564 17.59221459 -16.7100352 17.60021874 -19.22768211 17.61338043 C-22.75765362 17.63051532 -26.28714197 17.62854211 -29.81713867 17.62207031 C-31.36442909 17.63589249 -31.36442909 17.63589249 -32.94297791 17.6499939 C-39.83913956 17.61056893 -48.28806675 17.40724575 -53.4296875 12.265625 C-53.4921875 10.328125 -53.4921875 10.328125 -52.4296875 8.265625 C-47.61607123 5.56999989 -44.02313169 4.81814946 -38.4296875 5.265625 C-38.0996875 5.595625 -37.7696875 5.925625 -37.4296875 6.265625 C-33.94912876 6.08995142 -33.94912876 6.08995142 -30.4296875 5.265625 C-29.7696875 4.275625 -29.1096875 3.285625 -28.4296875 2.265625 C-19.23274979 -0.14562596 -9.44524225 -0.0309138 0 0 Z " fill="#2286B7" transform="translate(141.4296875,294.734375)"/>
<path d="M0 0 C1.09183594 0.43570313 2.18367188 0.87140625 3.30859375 1.3203125 C15.40492407 6.73923159 20.24034613 14.92598986 25 27 C27.29035829 33.24643169 27.21740172 39.42963689 27 46 C26.67 46 26.34 46 26 46 C25.85304688 45.27296875 25.70609375 44.5459375 25.5546875 43.796875 C23.11505809 32.86060525 18.91888976 20.55809399 9.3359375 13.83203125 C-8.06203517 4.17060387 -34.03853951 2.74079645 -53.0625 7.6875 C-63.58015632 10.89288097 -71.76425303 14.59285382 -78 24 C-79.77248878 27.61981598 -81.30944791 31.20690833 -82.7734375 34.9609375 C-84 38 -84 38 -86 41 C-86.84003869 30.07949706 -82.51098412 19.65698113 -76 11 C-59.39995758 -8.12029178 -21.98930579 -8.95139882 0 0 Z " fill="#03131B" transform="translate(177,76)"/>
<path d="M0 0 C3.375 0.3125 3.375 0.3125 7 1 C9.39353682 4.59030523 9.69207167 6.86229489 9 11 C1.90992819 34.19761359 -18.64589933 56.11978639 -38 70 C-40.33524782 67.74259377 -42.18705073 65.7194239 -44 63 C-43.80604368 58.92901974 -41.2607118 56.95814897 -38.44140625 54.25390625 C-37.50248535 53.3407666 -36.56356445 52.42762695 -35.59619141 51.48681641 C-35.10000305 51.00931946 -34.6038147 50.53182251 -34.09259033 50.03985596 C-18.66870434 35.1475523 -7.35979351 20.27881944 0 0 Z " fill="#A9D7E9" transform="translate(276,125)"/>
<path d="M0 0 C2.546875 0.34375 2.546875 0.34375 4.03125 1.8125 C4.44890625 2.4828125 4.8665625 3.153125 5.296875 3.84375 C11.7711527 13.15359743 20.81348879 18.81289642 30.546875 24.34375 C31.53945313 24.91480469 32.53203125 25.48585937 33.5546875 26.07421875 C40.96392957 30.07520947 48.26800442 31.9476091 56.546875 33.34375 C55.11958681 37.93421743 53.34960803 41.41992376 50.546875 45.34375 C32.80814292 42.30779552 10.12533374 28.29984034 -1.10546875 14.28125 C-3.82185774 10.30824893 -5.27671797 7.28530783 -4.453125 2.34375 C-2.453125 0.34375 -2.453125 0.34375 0 0 Z " fill="#A9D7E9" transform="translate(8.453125,150.65625)"/>
<path d="M0 0 C4.29638743 8.11797193 5.81650628 16.89203887 6 26 C-0.21542792 28.07180931 -6.11485739 27.76937109 -12.0625 25 C-19.22130061 21.02539777 -24.88258199 16.07132869 -29 9 C-24.92405075 7.29425537 -20.83821032 5.61362135 -16.75 3.9375 C-15.59113281 3.45216797 -14.43226563 2.96683594 -13.23828125 2.46679688 C-12.12324219 2.01240234 -11.00820312 1.55800781 -9.859375 1.08984375 C-8.83295898 0.66566162 -7.80654297 0.24147949 -6.74902344 -0.19555664 C-3.91559672 -1.02469883 -2.659817 -1.23670381 0 0 Z " fill="#D4E8F1" transform="translate(210,274)"/>
<path d="M0 0 C1.28197266 -0.01160156 1.28197266 -0.01160156 2.58984375 -0.0234375 C5.54623449 0.45294774 6.90715787 1.32091555 9.0625 3.375 C10.24745889 6.92987668 10.13330051 10.12025337 10.0625 13.8125 C9.99871704 17.89062314 9.95318166 21.45427945 11.0625 25.375 C11.17583058 26.87201785 11.23714686 28.3737535 11.25 29.875 C11.26417969 30.6278125 11.27835938 31.380625 11.29296875 32.15625 C11.03667278 34.62364173 10.29095153 36.23856256 9.0625 38.375 C5.8125 38.6875 5.8125 38.6875 2.0625 38.375 C-1.30390636 34.93222903 -2.96620161 31.35427893 -4.625 26.875 C-5.04136719 25.7715625 -5.45773438 24.668125 -5.88671875 23.53125 C-7.49702287 18.69435138 -8.11086272 14.34637884 -8.1875 9.25 C-8.21328125 8.21617187 -8.2390625 7.18234375 -8.265625 6.1171875 C-7.9375 3.375 -7.9375 3.375 -6.73046875 1.53125 C-4.3743936 0.01186385 -2.79055946 -0.02517798 0 0 Z " fill="#FEFEFE" transform="translate(86.9375,209.625)"/>
<path d="M0 0 C1.9375 1.125 1.9375 1.125 3 3 C3.1197425 8.86738247 0.65394245 12.63960573 -2.4453125 17.49609375 C-3.86610533 19.78435556 -5.04670783 22.06365702 -6.1875 24.5 C-8 28 -8 28 -11 30 C-17.22254291 30.55558419 -17.22254291 30.55558419 -19.68359375 28.796875 C-21.94711043 25.70720831 -21.58466467 22.69915869 -21.4765625 18.984375 C-20.26355006 11.38813313 -15.38613352 5.72591246 -9.515625 1.05859375 C-6.04973006 -1.36217307 -4.07815103 -0.99873086 0 0 Z " fill="#FEFEFE" transform="translate(103,165)"/>
<path d="M0 0 C9.87449551 2.75190858 19.41030026 6.40127837 29 10 C28.87464599 11.57222706 28.7399943 13.14371416 28.6015625 14.71484375 C28.49062256 16.02763306 28.49062256 16.02763306 28.37744141 17.36694336 C27.80274714 21.37604922 26.67565817 24.90652134 24 28 C20.09816004 29.27696581 17.96003052 29.30639272 14.0625 28.0625 C13.381875 27.711875 12.70125 27.36125 12 27 C12 26.01 12 25.02 12 24 C10.88650105 22.07862293 10.88650105 22.07862293 9.375 20.0625 C0 6.46875 0 6.46875 0 0 Z " fill="#D5E9F2" transform="translate(87,273)"/>
<path d="M0 0 C1.15048828 -0.00773437 1.15048828 -0.00773437 2.32421875 -0.015625 C4.3125 0.25 4.3125 0.25 6.3125 2.25 C6.33984375 4.20703125 6.33984375 4.20703125 5.3125 6.25 C2.50390625 7.63671875 2.50390625 7.63671875 -1.125 8.9375 C-9.04053544 11.9900417 -14.63240872 16.72016633 -20.2890625 23.0390625 C-20.98128906 23.63847656 -20.98128906 23.63847656 -21.6875 24.25 C-24.375 23.9375 -24.375 23.9375 -26.6875 23.25 C-27.1225326 17.85937861 -25.20963784 15.57598692 -21.890625 11.53515625 C-16.09726032 5.52608118 -8.63712468 -0.05865619 0 0 Z " fill="#FDFEFE" transform="translate(116.6875,58.75)"/>
<path d="M0 0 C4.29638743 8.11797193 5.81650628 16.89203887 6 26 C3.07345473 26.97551509 1.05345004 27.16478088 -2 27.1875 C-3.299375 27.20876953 -3.299375 27.20876953 -4.625 27.23046875 C-7 27 -7 27 -10 25 C-9.360625 24.87625 -8.72125 24.7525 -8.0625 24.625 C-7.381875 24.41875 -6.70125 24.2125 -6 24 C-4.07316908 20.14633817 -4.49431737 15.68188365 -5.70703125 11.6484375 C-6.26816552 10.11620786 -6.83188068 8.5849204 -7.3984375 7.0546875 C-8.16497849 4.43650204 -7.90660456 2.55497647 -7 0 C-2.85748792 -1.38083736 -2.85748792 -1.38083736 0 0 Z " fill="#A8D7E8" transform="translate(210,274)"/>
<path d="M0 0 C5.75 0.875 5.75 0.875 8 2 C7.73817435 8.38854583 7.35919965 14.96008449 3 20 C-0.90183996 21.27696581 -3.03996948 21.30639272 -6.9375 20.0625 C-7.9584375 19.5365625 -7.9584375 19.5365625 -9 19 C-7.8553125 17.9790625 -7.8553125 17.9790625 -6.6875 16.9375 C-2.06274163 11.88253155 -0.68550738 6.71797232 0 0 Z " fill="#A8D6E8" transform="translate(108,281)"/>
<path d="M0 0 C5.28 0 10.56 0 16 0 C16 2.64 16 5.28 16 8 C10.72 8 5.44 8 0 8 C0 5.36 0 2.72 0 0 Z " fill="#A8D7E9" transform="translate(147,44)"/>
<path d="M0 0 C4.52015926 0.37050486 6.92620565 0.98072339 10.8125 3.3125 C11.8125 6.4375 11.8125 6.4375 11.8125 9.3125 C11.4825 9.6425 11.1525 9.9725 10.8125 10.3125 C5.54380034 9.89100403 1.43941546 8.76204348 -3.1875 6.3125 C-4.625 4.125 -4.625 4.125 -5.1875 2.3125 C-3.1875 0.3125 -3.1875 0.3125 0 0 Z " fill="#FDFEFE" transform="translate(26.1875,153.6875)"/>
<path d="M0 0 C-0.63506671 5.3382419 -2.85739181 7.22985608 -6.85546875 10.55078125 C-9.53201466 12.35952175 -11.78191329 12.91954783 -15 13 C-15.8125 11.3125 -15.8125 11.3125 -16 9 C-11.85856712 3.98008136 -6.846324 -0.80544988 0 0 Z " fill="#FCFDFE" transform="translate(268,133)"/>
<path d="M0 0 C2 3 2 3 3.4375 5.625 C4.84017274 8.29046993 4.84017274 8.29046993 8 9 C9.97654185 9.11953769 11.95738456 9.17526196 13.9375 9.1875 C15.49791016 9.20876953 15.49791016 9.20876953 17.08984375 9.23046875 C20.01675763 8.99867289 21.61131751 8.6769306 24 7 C25.10493335 5.30049572 25.10493335 5.30049572 25.75 3.375 C26.1625 2.26125 26.575 1.1475 27 0 C27.66 0.33 28.32 0.66 29 1 C27.79645581 5.41299538 26.56751319 8.08112557 23 11 C17.51161827 12.82946058 10.3895099 13.2069657 4.8828125 11.24609375 C1.99169591 9.41217651 -0.06969358 7.30775616 -1 4 C-0.625 1.75 -0.625 1.75 0 0 Z " fill="#33D7A4" transform="translate(136,110)"/>
<path d="M0 0 C0.66 0.66 1.32 1.32 2 2 C0.125 7.875 0.125 7.875 -1 9 C-3.33297433 9.04092937 -5.66705225 9.04241723 -8 9 C-9.3260274 3.57534247 -9.3260274 3.57534247 -7.9375 1.125 C-5.17898298 -0.47671956 -3.1304173 -0.33302312 0 0 Z " fill="#DDEDF4" transform="translate(149,10)"/>
<path d="M0 0 C3.1875 2.1875 3.1875 2.1875 5 5 C5.3125 7.8125 5.3125 7.8125 5 10 C4.34 10 3.68 10 3 10 C2.34 8.02 1.68 6.04 1 4 C-5.23261142 2.66955723 -5.23261142 2.66955723 -11 4.8125 C-13.03054987 6.83320358 -13.03054987 6.83320358 -14 9 C-14.66 9 -15.32 9 -16 9 C-15.68207686 6.13869171 -15.10176021 4.17114217 -13.625 1.6875 C-9.34483185 -1.06403667 -4.92724457 -0.84550351 0 0 Z " fill="#33D9A5" transform="translate(181,92)"/>
<path d="M0 0 C2.82594813 0.60495596 3.93986353 1.18958249 5.859375 3.30859375 C7.609375 6.55859375 7.609375 6.55859375 7.421875 8.93359375 C7.15375 9.46984375 6.885625 10.00609375 6.609375 10.55859375 C3.86410865 9.18596058 3.16581852 7.15266628 1.609375 4.55859375 C-1.23146141 3.13817554 -3.24539778 3.24407103 -6.390625 3.55859375 C-8.69338056 5.42569285 -10.06886371 6.91507116 -11.390625 9.55859375 C-12.380625 9.55859375 -13.370625 9.55859375 -14.390625 9.55859375 C-14.07392994 6.70833819 -13.15033452 5.20616771 -11.515625 2.80859375 C-7.52795934 -0.06252553 -4.82917887 -0.21535527 0 0 Z " fill="#35DEA8" transform="translate(122.390625,91.44140625)"/>
<path d="M0 0 C0.66 0.33 1.32 0.66 2 1 C0.79949612 5.40184756 -0.39085643 8.1339154 -4 11 C-7.08698913 12.06402604 -9.53463316 11.98806326 -12.75 11.5625 C-13.54921875 11.46066406 -14.3484375 11.35882813 -15.171875 11.25390625 C-15.77515625 11.17011719 -16.3784375 11.08632812 -17 11 C-17 10.67 -17 10.34 -17 10 C-16.32453125 9.95101562 -15.6490625 9.90203125 -14.953125 9.8515625 C-14.06109375 9.77679688 -13.1690625 9.70203125 -12.25 9.625 C-11.36828125 9.55539063 -10.4865625 9.48578125 -9.578125 9.4140625 C-6.93435213 8.98945655 -5.22391287 8.48260858 -3 7 C-1.89506665 5.30049572 -1.89506665 5.30049572 -1.25 3.375 C-0.8375 2.26125 -0.425 1.1475 0 0 Z " fill="#2CC097" transform="translate(163,110)"/>
<path d="M0 0 C2 0.75 2 0.75 4 3.75 C4.125 6.4375 4.125 6.4375 4 8.75 C3.34 8.75 2.68 8.75 2 8.75 C1.7525 7.80125 1.505 6.8525 1.25 5.875 C0.3142923 2.66306809 0.3142923 2.66306809 -2.125 1.375 C-2.74375 1.16875 -3.3625 0.9625 -4 0.75 C-2 -0.25 -2 -0.25 0 0 Z " fill="#32D3A2" transform="translate(182,93.25)"/>
<path d="M0 0 C0.66 0.33 1.32 0.66 2 1 C1.74438677 3.3431213 1.40729228 5.67843403 1 8 C-1.70879335 9.35439668 -4.00933268 9.06501451 -7 9 C-7.33 8.34 -7.66 7.68 -8 7 C-5.69 6.34 -3.38 5.68 -1 5 C-0.67 3.35 -0.34 1.7 0 0 Z " fill="#B2DBEB" transform="translate(150,12)"/>
<path d="M0 0 C2.1640625 -0.29296875 2.1640625 -0.29296875 4.625 -0.1875 C5.44226563 -0.16042969 6.25953125 -0.13335937 7.1015625 -0.10546875 C8.04128906 -0.05326172 8.04128906 -0.05326172 9 0 C8.67 0.66 8.34 1.32 8 2 C5.71484375 2.4140625 5.71484375 2.4140625 2.9375 2.625 C2.01839844 2.69976562 1.09929687 2.77453125 0.15234375 2.8515625 C-0.55792969 2.90054688 -1.26820313 2.94953125 -2 3 C-1.34 2.01 -0.68 1.02 0 0 Z " fill="#37E6AD" transform="translate(172,92)"/>
<path d="M0 0 C0.99 0.33 1.98 0.66 3 1 C3 4.63 3 8.26 3 12 C2.67 12 2.34 12 2 12 C1.34 8.04 0.68 4.08 0 0 Z " fill="#0B1D26" transform="translate(201,110)"/>
<path d="M0 0 C0.66 0.33 1.32 0.66 2 1 C1.34 2.98 0.68 4.96 0 7 C-0.99 7 -1.98 7 -3 7 C-2.38722388 4.03824877 -1.74627478 2.61941217 0 0 Z " fill="#31D1A1" transform="translate(111,94)"/>
</svg>
